<svg data-v-95b6d3a0="" xmlns="http://www.w3.org/2000/svg" width="17" height="19" fill="none" viewBox="0 0 17 19" class="text-reader-primary"><path fill="currentColor" d="M16.738 16.009c-.086 0-2.158-.664-2.158-3.985V8.04a5.98 5.98 0 0 0-3.985-5.631v-.346a1.992 1.992 0 0 0-3.984 0v.346A5.98 5.98 0 0 0 2.627 8.04v3.984c0 3.374-2.072 3.985-2.152 3.985l.16 1.328H6.73a1.992 1.992 0 0 0 3.745 0h6.096zM7.939 2.063a.664.664 0 1 1 1.328 0v.04a5.6 5.6 0 0 0-1.328 0zM2.72 16.01a6 6 0 0 0 1.236-3.985V8.04a4.648 4.648 0 1 1 9.297 0v3.984a6 6 0 0 0 1.235 3.985z"></path></svg>