<svg xmlns="http://www.w3.org/2000/svg" xmlns:xlink="http://www.w3.org/1999/xlink" viewBox="0 0 192 192" width="192" height="192" preserveAspectRatio="xMidYMid meet" style="width: 100%; height: 100%; transform: translate3d(0px, 0px, 0px); content-visibility: visible;"><defs><clipPath id="__lottie_element_142"><rect width="192" height="192" x="0" y="0"></rect></clipPath></defs><g clip-path="url(#__lottie_element_142)"><g style="display: block;" transform="matrix(1,0,0,1,59.75,59.75)" opacity="1"><g opacity="1" transform="matrix(1,0,0,1,36.25,36.25)"><path fill="rgb(14,57,124)" fill-opacity="1" d=" M0,-36 C19.881999969482422,-36 36,-19.881999969482422 36,0 C36,19.881999969482422 19.881999969482422,36 0,36 C-19.881999969482422,36 -36,19.881999969482422 -36,0 C-36,-19.881999969482422 -19.881999969482422,-36 0,-36z"></path></g></g><g style="display: block;" transform="matrix(1,0,0,1,5.75,5.75)" opacity="1"><g opacity="1" transform="matrix(1,0,0,1,90.25,90.25)"><path fill="rgb(14,57,124)" fill-opacity="1" d=" M0,90 C-49.619998931884766,90 -90,49.619998931884766 -90,0 C-90,-49.619998931884766 -49.619998931884766,-90 0,-90 C49.619998931884766,-90 90,-49.619998931884766 90,0 C90,49.619998931884766 49.619998931884766,90 0,90z M0,-78 C-43.02000045776367,-78 -78,-43.02000045776367 -78,0 C-78,43.02000045776367 -43.02000045776367,78 0,78 C43.02000045776367,78 78,43.02000045776367 78,0 C78,-43.02000045776367 43.02000045776367,-78 0,-78z"></path></g></g><g style="display: block;" transform="matrix(1,0,0,1,29.75,29.75)" opacity="1"><g opacity="1" transform="matrix(1,0,0,1,66.25,66.25)"><path fill="rgb(14,57,124)" fill-opacity="1" d=" M0,66 C-36.41999816894531,66 -66,36.41999816894531 -66,0 C-66,-36.41999816894531 -36.41999816894531,-66 0,-66 C36.41999816894531,-66 66,-36.41999816894531 66,0 C66,36.41999816894531 36.41999816894531,66 0,66z M0,-54 C-29.760000228881836,-54 -54,-29.760000228881836 -54,0 C-54,29.760000228881836 -29.760000228881836,54 0,54 C29.760000228881836,54 54,29.760000228881836 54,0 C54,-29.760000228881836 29.760000228881836,-54 0,-54z"></path></g></g><g style="display: block;" transform="matrix(1,0,0,1,3.1699981689453125,91.55000305175781)" opacity="1"><g opacity="1" transform="matrix(1,0,0,1,48.63999938964844,48.63999938964844)"><path fill="rgb(14,57,124)" fill-opacity="1" d=" M-24.09000015258789,-5.070000171661377 C-24.09000015258789,-5.070000171661377 -48.38999938964844,19.229999542236328 -48.38999938964844,19.229999542236328 C-41.4900016784668,24.989999771118164 -31.649999618530273,27.209999084472656 -23.25,23.25 C-27.030000686645508,31.950000762939453 -24.93000030517578,41.0099983215332 -19.229999542236328,48.38999938964844 C-19.229999542236328,48.38999938964844 5.070000171661377,24.09000015258789 5.070000171661377,24.09000015258789 C-0.6299999952316284,18.389999389648438 -0.6299999952316284,9.09000015258789 5.070000171661377,3.390000104904175 C5.070000171661377,3.390000104904175 48.38999938964844,-39.93000030517578 48.38999938964844,-39.93000030517578 C48.38999938964844,-39.93000030517578 39.93000030517578,-48.38999938964844 39.93000030517578,-48.38999938964844 C39.93000030517578,-48.38999938964844 -3.390000104904175,-5.070000171661377 -3.390000104904175,-5.070000171661377 C-9.09000015258789,0.6299999952316284 -18.389999389648438,0.6299999952316284 -24.09000015258789,-5.070000171661377z"></path></g></g></g></svg>