<svg xmlns="http://www.w3.org/2000/svg" xmlns:xlink="http://www.w3.org/1999/xlink" viewBox="0 0 192 192" width="192" height="192" preserveAspectRatio="xMidYMid meet" style="width: 100%; height: 100%; transform: translate3d(0px, 0px, 0px); content-visibility: visible;"><defs><clipPath id="__lottie_element_156"><rect width="192" height="192" x="0" y="0"></rect></clipPath><g id="__lottie_element_160"><g style="display: block;" transform="matrix(1,0,0,1,96,96)" opacity="1"><g opacity="1" transform="matrix(1,0,0,0.9308300018310547,5.043000221252441,43.09600067138672)"><path fill="rgb(14,57,124)" fill-opacity="1" d=" M116.04299926757812,-73.09549713134766 C116.04299926757812,-73.09549713134766 116.04299926757812,73.09549713134766 116.04299926757812,73.09549713134766 C116.04299926757812,73.09549713134766 -116.04299926757812,73.09549713134766 -116.04299926757812,73.09549713134766 C-116.04299926757812,73.09549713134766 -116.04299926757812,-73.09549713134766 -116.04299926757812,-73.09549713134766 C-116.04299926757812,-73.09549713134766 116.04299926757812,-73.09549713134766 116.04299926757812,-73.09549713134766z"></path></g></g></g><filter id="__lottie_element_166" filterUnits="objectBoundingBox" x="0%" y="0%" width="100%" height="100%"><feComponentTransfer in="SourceGraphic"><feFuncA type="table" tableValues="1.0 0.0"></feFuncA></feComponentTransfer></filter><mask id="__lottie_element_160_2" mask-type="alpha"><g filter="url(#__lottie_element_166)"><rect width="192" height="192" x="0" y="0" fill="#ffffff" opacity="0"></rect><use xlink:href="#__lottie_element_160"></use></g></mask><g id="__lottie_element_167"><g style="display: block;" transform="matrix(1,0,0,1,96,96)" opacity="1"><g opacity="1" transform="matrix(1,0,0,0.9308300018310547,5.043000221252441,43.09600067138672)"><path fill="rgb(14,57,124)" fill-opacity="1" d=" M116.04299926757812,-73.09549713134766 C116.04299926757812,-73.09549713134766 116.04299926757812,73.09549713134766 116.04299926757812,73.09549713134766 C116.04299926757812,73.09549713134766 -116.04299926757812,73.09549713134766 -116.04299926757812,73.09549713134766 C-116.04299926757812,73.09549713134766 -116.04299926757812,-73.09549713134766 -116.04299926757812,-73.09549713134766 C-116.04299926757812,-73.09549713134766 116.04299926757812,-73.09549713134766 116.04299926757812,-73.09549713134766z"></path></g></g></g><filter id="__lottie_element_173" filterUnits="objectBoundingBox" x="0%" y="0%" width="100%" height="100%"><feComponentTransfer in="SourceGraphic"><feFuncA type="table" tableValues="1.0 0.0"></feFuncA></feComponentTransfer></filter><mask id="__lottie_element_167_2" mask-type="alpha"><g filter="url(#__lottie_element_173)"><rect width="192" height="192" x="0" y="0" fill="#ffffff" opacity="0"></rect><use xlink:href="#__lottie_element_167"></use></g></mask></defs><g clip-path="url(#__lottie_element_156)"><g mask="url(#__lottie_element_167_2)" style="display: block;"><g transform="matrix(1,0,0,1,38.45000076293945,8.689998626708984)" opacity="1"><g opacity="1" transform="matrix(1,0,0,1,32.11000061035156,30.579999923706055)"><path fill="rgb(14,57,124)" fill-opacity="1" d=" M15.600000381469727,30.329999923706055 C6.71999979019165,30.329999923706055 -7.920000076293945,28.649999618530273 -17.520000457763672,19.049999237060547 C-31.860000610351562,4.710000038146973 -28.5,-20.670000076293945 -28.3799991607666,-21.75 C-28.3799991607666,-21.75 -27.780000686645508,-26.25 -27.780000686645508,-26.25 C-27.780000686645508,-26.25 -23.280000686645508,-26.850000381469727 -23.280000686645508,-26.850000381469727 C-22.200000762939453,-27.030000686645508 3.180000066757202,-30.329999923706055 17.520000457763672,-15.989999771118164 C31.860000610351562,-1.649999976158142 28.5,23.729999542236328 28.3799991607666,24.809999465942383 C28.3799991607666,24.809999465942383 27.780000686645508,29.309999465942383 27.780000686645508,29.309999465942383 C27.780000686645508,29.309999465942383 23.280000686645508,29.90999984741211 23.280000686645508,29.90999984741211 C22.920000076293945,29.90999984741211 19.979999542236328,30.329999923706055 15.65999984741211,30.329999923706055 C15.65999984741211,30.329999923706055 15.600000381469727,30.329999923706055 15.600000381469727,30.329999923706055z M-9.0600004196167,10.59000015258789 C-1.9800000190734863,17.670000076293945 10.079999923706055,18.450000762939453 16.799999237060547,18.329999923706055 C16.920000076293945,11.609999656677246 16.079999923706055,-0.44999998807907104 9.0600004196167,-7.53000020980835 C1.9800000190734863,-14.609999656677246 -10.140000343322754,-15.390000343322754 -16.799999237060547,-15.270000457763672 C-16.920000076293945,-8.550000190734863 -16.079999923706055,3.509999990463257 -9.0600004196167,10.59000015258789z"></path></g></g></g><g mask="url(#__lottie_element_160_2)" style="display: block;"><g transform="matrix(1,0,0,1,89.38999938964844,8.69000244140625)" opacity="1"><g opacity="1" transform="matrix(1,0,0,1,32.11000061035156,30.579999923706055)"><path fill="rgb(14,57,124)" fill-opacity="1" d=" M-15.65999984741211,30.329999923706055 C-19.979999542236328,30.329999923706055 -22.979999542236328,29.90999984741211 -23.280000686645508,29.90999984741211 C-23.280000686645508,29.90999984741211 -27.780000686645508,29.309999465942383 -27.780000686645508,29.309999465942383 C-27.780000686645508,29.309999465942383 -28.3799991607666,24.809999465942383 -28.3799991607666,24.809999465942383 C-28.5,23.729999542236328 -31.860000610351562,-1.649999976158142 -17.520000457763672,-15.989999771118164 C-3.180000066757202,-30.329999923706055 22.200000762939453,-26.969999313354492 23.280000686645508,-26.850000381469727 C23.280000686645508,-26.850000381469727 27.780000686645508,-26.25 27.780000686645508,-26.25 C27.780000686645508,-26.25 28.3799991607666,-21.75 28.3799991607666,-21.75 C28.5,-20.670000076293945 31.860000610351562,4.710000038146973 17.520000457763672,19.049999237060547 C7.860000133514404,28.709999084472656 -6.71999979019165,30.329999923706055 -15.600000381469727,30.329999923706055 C-15.600000381469727,30.329999923706055 -15.65999984741211,30.329999923706055 -15.65999984741211,30.329999923706055z M-16.860000610351562,18.329999923706055 C-10.140000343322754,18.450000762939453 1.9199999570846558,17.610000610351562 9,10.59000015258789 C16.079999923706055,3.509999990463257 16.920000076293945,-8.550000190734863 16.739999771118164,-15.270000457763672 C10.020000457763672,-15.390000343322754 -2.0399999618530273,-14.550000190734863 -9.119999885559082,-7.53000020980835 C-16.200000762939453,-0.5099999904632568 -17.040000915527344,11.609999656677246 -16.860000610351562,18.329999923706055z"></path></g></g></g><g style="display: block;" transform="matrix(1,0,0,1,22.970001220703125,65.75)" opacity="1"><g opacity="1" transform="matrix(1,0,0,1,72.63999938964844,9.25)"><path fill="rgb(14,57,124)" fill-opacity="1" d=" M-72.38999938964844,-9 C-72.38999938964844,-9 72.38999938964844,-9 72.38999938964844,-9 C72.38999938964844,-9 72.38999938964844,9 72.38999938964844,9 C72.38999938964844,9 -72.38999938964844,9 -72.38999938964844,9 C-72.38999938964844,9 -72.38999938964844,-9 -72.38999938964844,-9z"></path></g><g opacity="1" transform="matrix(1,0,0,1,73.02999877929688,57.25)"><path fill="rgb(14,57,124)" fill-opacity="1" d=" M48,57 C48,57 -48,57 -48,57 C-48,57 -60,-57 -60,-57 C-60,-57 60,-57 60,-57 C60,-57 48,57 48,57z"></path></g></g></g></svg>