<svg xmlns="http://www.w3.org/2000/svg" xmlns:xlink="http://www.w3.org/1999/xlink" viewBox="0 0 192 192" width="192" height="192" preserveAspectRatio="xMidYMid meet" style="width: 100%; height: 100%; transform: translate3d(0px, 0px, 0px); content-visibility: visible;"><defs><clipPath id="__lottie_element_122"><rect width="192" height="192" x="0" y="0"></rect></clipPath></defs><g clip-path="url(#__lottie_element_122)"><g style="display: block;" transform="matrix(1,0,0,1,23.75,64.06999969482422)" opacity="1"><g opacity="1" transform="matrix(1,0,0,1,72.25,58.09000015258789)"><path fill="rgb(0,99,251)" fill-opacity="1" d=" M72,-38.52000045776367 C72,-38.52000045776367 72,57.84000015258789 72,57.84000015258789 C72,57.84000015258789 -72,57.84000015258789 -72,57.84000015258789 C-72,57.84000015258789 -72,-38.52000045776367 -72,-38.52000045776367 C-72,-38.52000045776367 0,-57.84000015258789 0,-57.84000015258789 C0,-57.84000015258789 72,-38.52000045776367 72,-38.52000045776367z"></path></g></g><g style="display: none;" transform="matrix(1,0,0,1,16.19000244140625,7.799008369445801)" opacity="0.1987999999988823"><g opacity="1" transform="matrix(1,0,0,1,79.80999755859375,16.690000534057617)"><path fill="rgb(14,57,124)" fill-opacity="1" d=" M76.44000244140625,16.440000534057617 C76.44000244140625,16.440000534057617 0,-4.019999980926514 0,-4.019999980926514 C0,-4.019999980926514 -76.44000244140625,16.440000534057617 -76.44000244140625,16.440000534057617 C-76.44000244140625,16.440000534057617 -79.55999755859375,4.860000133514404 -79.55999755859375,4.860000133514404 C-79.55999755859375,4.860000133514404 0,-16.440000534057617 0,-16.440000534057617 C0,-16.440000534057617 79.55999755859375,4.860000133514404 79.55999755859375,4.860000133514404 C79.55999755859375,4.860000133514404 76.44000244140625,16.440000534057617 76.44000244140625,16.440000534057617z"></path></g></g><g style="display: block;" transform="matrix(1,0,0,1,16.19000244140625,35.5099983215332)" opacity="1"><g opacity="1" transform="matrix(1,0,0,1,79.80999755859375,16.690000534057617)"><path fill="rgb(0,99,251)" fill-opacity="1" d=" M76.44000244140625,16.440000534057617 C76.44000244140625,16.440000534057617 0,-4.019999980926514 0,-4.019999980926514 C0,-4.019999980926514 -76.44000244140625,16.440000534057617 -76.44000244140625,16.440000534057617 C-76.44000244140625,16.440000534057617 -79.55999755859375,4.860000133514404 -79.55999755859375,4.860000133514404 C-79.55999755859375,4.860000133514404 0,-16.440000534057617 0,-16.440000534057617 C0,-16.440000534057617 79.55999755859375,4.860000133514404 79.55999755859375,4.860000133514404 C79.55999755859375,4.860000133514404 76.44000244140625,16.440000534057617 76.44000244140625,16.440000534057617z"></path></g></g><g style="display: none;" transform="matrix(1,0,0,1,10.19000244140625,-16.200992584228516)" opacity="0.1987999999988823"><g opacity="1" transform="matrix(1,0,0,1,85.80999755859375,17.530000686645508)"><path fill="rgb(14,57,124)" fill-opacity="1" d=" M82.44000244140625,17.280000686645508 C82.44000244140625,17.280000686645508 0,-4.800000190734863 0,-4.800000190734863 C0,-4.800000190734863 -82.44000244140625,17.280000686645508 -82.44000244140625,17.280000686645508 C-82.44000244140625,17.280000686645508 -85.55999755859375,5.699999809265137 -85.55999755859375,5.699999809265137 C-85.55999755859375,5.699999809265137 0,-17.280000686645508 0,-17.280000686645508 C0,-17.280000686645508 85.55999755859375,5.699999809265137 85.55999755859375,5.699999809265137 C85.55999755859375,5.699999809265137 82.44000244140625,17.280000686645508 82.44000244140625,17.280000686645508z"></path></g></g><g style="display: block;" transform="matrix(1,0,0,1,10.19000244140625,11.50999927520752)" opacity="1"><g opacity="1" transform="matrix(1,0,0,1,85.80999755859375,17.530000686645508)"><path fill="rgb(0,99,251)" fill-opacity="1" d=" M82.44000244140625,17.280000686645508 C82.44000244140625,17.280000686645508 0,-4.800000190734863 0,-4.800000190734863 C0,-4.800000190734863 -82.44000244140625,17.280000686645508 -82.44000244140625,17.280000686645508 C-82.44000244140625,17.280000686645508 -85.55999755859375,5.699999809265137 -85.55999755859375,5.699999809265137 C-85.55999755859375,5.699999809265137 0,-17.280000686645508 0,-17.280000686645508 C0,-17.280000686645508 85.55999755859375,5.699999809265137 85.55999755859375,5.699999809265137 C85.55999755859375,5.699999809265137 82.44000244140625,17.280000686645508 82.44000244140625,17.280000686645508z"></path></g></g><g style="display: block;" transform="matrix(1.149999976158142,0,0,1.149999976158142,68.11250305175781,96.9124984741211)" opacity="1"><g opacity="1" transform="matrix(1,0,0,1,24.25,36.25)"><path fill="rgb(255,255,255)" fill-opacity="1" d=" M0,-36 C0,-36 0,-36 0,-36 C13.260000228881836,-36 24,-25.260000228881836 24,-12 C24,-12 24,36 24,36 C24,36 -24,36 -24,36 C-24,36 -24,-12 -24,-12 C-24,-25.260000228881836 -13.260000228881836,-36 0,-36z"></path></g></g></g></svg>