<svg xmlns="http://www.w3.org/2000/svg" xmlns:xlink="http://www.w3.org/1999/xlink" viewBox="0 0 192 192" width="192" height="192" preserveAspectRatio="xMidYMid meet" style="width: 100%; height: 100%; transform: translate3d(0px, 0px, 0px); content-visibility: visible;"><defs><clipPath id="__lottie_element_192"><rect width="192" height="192" x="0" y="0"></rect></clipPath></defs><g clip-path="url(#__lottie_element_192)"><g style="display: block;" transform="matrix(1,0,0,1,23.75,20.8700008392334)" opacity="1"><g opacity="1" transform="matrix(1,0,0,1,72.25,25.329999923706055)"><path fill="rgb(14,57,124)" fill-opacity="1" d=" M-60.25,57.08000183105469 C-60.25,57.08000183105469 -72.25,57.08000183105469 -72.25,57.08000183105469 C-72.25,57.08000183105469 -72,4.920000076293945 -72,4.920000076293945 C-72,-11.640000343322754 -58.560001373291016,-25.079999923706055 -42,-25.079999923706055 C-42,-25.079999923706055 72,-25.079999923706055 72,-25.079999923706055 C72,-25.079999923706055 72,-13.079999923706055 72,-13.079999923706055 C72,-13.079999923706055 -42,-13.079999923706055 -42,-13.079999923706055 C-51.900001525878906,-13.079999923706055 -60,-4.980000019073486 -60,4.920000076293945 C-60,4.920000076293945 -60.25,57.08000183105469 -60.25,57.08000183105469z"></path></g></g><g style="display: block;" transform="matrix(1,0,0,1,23.75,41.75)" opacity="1"><g opacity="1" transform="matrix(1,0,0,1,72.25,14.890000343322754)"><path fill="rgb(14,57,124)" fill-opacity="1" d=" M-60,14.640000343322754 C-60,14.640000343322754 -72,14.640000343322754 -72,14.640000343322754 C-72,-1.5 -58.86000061035156,-14.640000343322754 -42.720001220703125,-14.640000343322754 C-42.720001220703125,-14.640000343322754 72,-14.640000343322754 72,-14.640000343322754 C72,-14.640000343322754 72,-2.640000104904175 72,-2.640000104904175 C72,-2.640000104904175 -42.720001220703125,-2.640000104904175 -42.720001220703125,-2.640000104904175 C-52.2599983215332,-2.640000104904175 -60,5.099999904632568 -60,14.640000343322754z"></path></g></g><g style="display: block;" transform="matrix(1,0,0,1,23.75,65.75)" opacity="1"><g opacity="1" transform="matrix(1,0,0,1,72.25,51.25)"><path fill="rgb(14,57,124)" fill-opacity="1" d=" M-72,-51 C-72,-51 72,-51 72,-51 C72,-51 72,51 72,51 C72,51 -48,51 -48,51 C-61.2599983215332,51 -72,40.2599983215332 -72,27 C-72,27 -72,-51 -72,-51z"></path></g></g><g style="display: block;" transform="matrix(1,0,0,1,107.75,89.75)" opacity="1"><g opacity="1" transform="matrix(1,0,0,1,24.25,24.25)"><path fill="rgb(255,255,255)" fill-opacity="1" d=" M0,-24 C13.255000114440918,-24 24,-13.255000114440918 24,0 C24,13.255000114440918 13.255000114440918,24 0,24 C-13.255000114440918,24 -24,13.255000114440918 -24,0 C-24,-13.255000114440918 -13.255000114440918,-24 0,-24z"></path></g></g></g></svg>