<svg data-v-8d679472="" xmlns="http://www.w3.org/2000/svg" width="175" height="174" fill="none" viewBox="0 0 175 174"><path fill="#0065FF" d="M60.095 76.125c16.517 0 29.906-13.39 29.906-29.906 0-16.517-13.39-29.906-29.906-29.906-16.517 0-29.906 13.389-29.906 29.906s13.39 29.906 29.906 29.906"></path><path fill="#0065FF" d="M46.746 75.853h27.187c22.512 0 40.782 18.27 40.782 40.781v41.054H5.965v-41.054c0-22.51 18.27-40.78 40.78-40.78"></path><path fill="#0065FF" d="M62.053 76.125h14.953V63.32H61.944zM60.72 16.313h16.286v7.694H60.313zM96.418 76.125h18.569V63.32H96.309zM97.967 16.313h17.02v7.694H97.532z"></path><path fill="#6DBCF2" d="M76.625 76.125c16.517 0 29.906-13.39 29.906-29.906 0-16.517-13.39-29.906-29.906-29.906-16.517 0-29.906 13.389-29.906 29.906s13.39 29.906 29.906 29.906"></path><path fill="#6DBCF2" d="M63.657 75.853h27.187c22.511 0 40.781 18.27 40.781 40.781v41.054H22.875v-41.054c0-22.51 18.27-40.78 40.782-40.78"></path><path fill="#0065FF" d="M131.843 114.188H22.685v5.437h109.158zM131.843 139.553H22.685v5.438h109.158zM97.532 76.125c16.517 0 29.906-13.39 29.906-29.906 0-16.517-13.389-29.906-29.906-29.906-16.516 0-29.906 13.389-29.906 29.906s13.39 29.906 29.906 29.906"></path><path fill="#0065FF" d="M84.183 75.853h27.188c22.511 0 40.781 18.27 40.781 40.781v41.054H43.402v-41.054c0-22.51 18.27-40.78 40.781-40.78"></path><path fill="#6DBCF2" d="M114.443 76.125c16.517 0 29.906-13.39 29.906-29.906 0-16.517-13.389-29.906-29.906-29.906S84.537 29.702 84.537 46.219s13.39 29.906 29.906 29.906"></path><path fill="#6DBCF2" d="M101.121 75.853h27.187c22.512 0 40.782 18.27 40.782 40.781v41.054H60.34v-41.054c0-22.51 18.27-40.78 40.781-40.78"></path><path fill="#0065FF" d="M169.09 114.188H59.932v5.437H169.09zM169.09 139.553H59.932v5.438H169.09z"></path></svg>