<svg xmlns="http://www.w3.org/2000/svg" xmlns:xlink="http://www.w3.org/1999/xlink" viewBox="0 0 192 192" width="192" height="192" preserveAspectRatio="xMidYMid meet" style="width: 100%; height: 100%; transform: translate3d(0px, 0px, 0px); content-visibility: visible;"><defs><clipPath id="__lottie_element_206"><rect width="192" height="192" x="0" y="0"></rect></clipPath></defs><g clip-path="url(#__lottie_element_206)"><g style="display: block;" transform="matrix(1,0,0,1,49.130001068115234,29.809999465942383)" opacity="1"><g opacity="1" transform="matrix(1,0,0,1,46.93000030517578,14.140000343322754)"><path fill="rgb(14,57,124)" fill-opacity="1" d=" M38.099998474121094,13.890000343322754 C27.899999618530273,3.690000057220459 14.34000015258789,-1.9500000476837158 -0.05999999865889549,-1.9500000476837158 C-14.460000038146973,-1.9500000476837158 -28.020000457763672,3.690000057220459 -38.220001220703125,13.890000343322754 C-38.220001220703125,13.890000343322754 -46.68000030517578,5.429999828338623 -46.68000030517578,5.429999828338623 C-34.20000076293945,-7.050000190734863 -17.639999389648438,-13.890000343322754 0,-13.890000343322754 C17.639999389648438,-13.890000343322754 34.20000076293945,-7.050000190734863 46.68000030517578,5.429999828338623 C46.68000030517578,5.429999828338623 38.220001220703125,13.890000343322754 38.220001220703125,13.890000343322754 C38.220001220703125,13.890000343322754 38.099998474121094,13.890000343322754 38.099998474121094,13.890000343322754z"></path></g></g><g style="display: block;" transform="matrix(1,0,0,1,32.45000076293945,5.749999523162842)" opacity="1"><g opacity="1" transform="matrix(1,0,0,1,63.72999954223633,17.68000030517578)"><path fill="rgb(14,57,124)" fill-opacity="1" d=" M54.959999084472656,17.43000030517578 C40.20000076293945,2.6700000762939453 20.639999389648438,-5.429999828338623 -0.18000000715255737,-5.429999828338623 C-21,-5.429999828338623 -40.31999969482422,2.549999952316284 -55.02000045776367,17.06999969482422 C-55.02000045776367,17.06999969482422 -63.47999954223633,8.550000190734863 -63.47999954223633,8.550000190734863 C-46.5,-8.1899995803833 -24,-17.43000030517578 -0.18000000715255737,-17.43000030517578 C23.639999389648438,-17.43000030517578 46.439998626708984,-8.069999694824219 63.47999954223633,8.90999984741211 C63.47999954223633,8.90999984741211 55.02000045776367,17.3700008392334 55.02000045776367,17.3700008392334 C55.02000045776367,17.3700008392334 54.959999084472656,17.43000030517578 54.959999084472656,17.43000030517578z"></path></g></g><g style="display: block;" transform="matrix(1,0,0,1,48.22999954223633,53.75)" opacity="1"><g opacity="1" transform="matrix(1,0,0,1,47.77000045776367,57.25)"><path fill="rgb(14,57,124)" fill-opacity="1" d=" M0,-57 C0,-57 -47.52000045776367,57 -47.52000045776367,57 C-47.52000045776367,57 0,37.97999954223633 0,37.97999954223633 C0,37.97999954223633 47.52000045776367,57 47.52000045776367,57 C47.52000045776367,57 0,-57 0,-57z"></path></g></g><g style="display: none;"><g><path></path></g></g><g style="display: none;"><g><path></path></g></g></g></svg>