<svg xmlns="http://www.w3.org/2000/svg" xmlns:xlink="http://www.w3.org/1999/xlink" viewBox="0 0 192 192" width="192" height="192" preserveAspectRatio="xMidYMid meet" style="width: 100%; height: 100%; transform: translate3d(0px, 0px, 0px); content-visibility: visible;"><defs><clipPath id="__lottie_element_175"><rect width="192" height="192" x="0" y="0"></rect></clipPath></defs><g clip-path="url(#__lottie_element_175)"><g style="display: block;" transform="matrix(1,0,0,1,17.75,71.75)" opacity="1"><g opacity="1" transform="matrix(1,0,0,1,78.25,48.25)"><path fill="rgb(14,57,124)" fill-opacity="1" d=" M-78,-48 C-78,-48 78,-48 78,-48 C78,-48 78,36 78,36 C78,42.599998474121094 72.5999984741211,48 66,48 C66,48 -66,48 -66,48 C-72.5999984741211,48 -78,42.599998474121094 -78,36 C-78,36 -78,-48 -78,-48z"></path></g></g><g style="display: none;"><g><path></path></g></g><g style="display: block;" transform="matrix(1,0,0,1,35.75,92.75)" opacity="1"><g opacity="1" transform="matrix(1,0,0,1,24.25,24.25)"><path fill="rgb(255,255,255)" fill-opacity="1" d=" M0,-24 C13.255000114440918,-24 24,-13.255000114440918 24,0 C24,13.255000114440918 13.255000114440918,24 0,24 C-13.255000114440918,24 -24,13.255000114440918 -24,0 C-24,-13.255000114440918 -13.255000114440918,-24 0,-24z"></path></g></g><g style="display: block;" transform="matrix(1,0,0,1,17.75,23.75)" opacity="1"><g opacity="1" transform="matrix(1,0,0,1,78.25,18.25)"><path fill="rgb(14,57,124)" fill-opacity="1" d=" M66,6 C66,6 -66,6 -66,6 C-66,6 -66,-6 -66,-6 C-66,-6 66,-6 66,-6 C66,-6 66,6 66,6z M66,-18 C66,-18 -66,-18 -66,-18 C-72.5999984741211,-18 -78,-12.600000381469727 -78,-6 C-78,-6 -78,18 -78,18 C-78,18 78,18 78,18 C78,18 78,-6 78,-6 C78,-12.600000381469727 72.5999984741211,-18 66,-18z"></path></g></g><g style="display: block;" transform="matrix(1,0,0,1,-159.25,23.75)" opacity="1"><g opacity="1" transform="matrix(1,0,0,1,78.25,18.25)"><path fill="rgb(0,99,251)" fill-opacity="1" d=" M66,6 C66,6 -66,6 -66,6 C-66,6 -66,-6 -66,-6 C-66,-6 66,-6 66,-6 C66,-6 66,6 66,6z M66,-18 C66,-18 -66,-18 -66,-18 C-72.5999984741211,-18 -78,-12.600000381469727 -78,-6 C-78,-6 -78,18 -78,18 C-78,18 78,18 78,18 C78,18 78,-6 78,-6 C78,-12.600000381469727 72.5999984741211,-18 66,-18z"></path></g></g></g></svg>