<svg xmlns="http://www.w3.org/2000/svg" width="19" height="14" fill="none" viewBox="0 0 19 14" class="global-nav__icon blue"><path fill="#0067F5" d="M3.493 8.762H.916v4.872h2.577zM16.341 13.196l-.908-.909a7.21 7.21 0 0 0 2.126-5.13c0-1.939-.741-3.73-2.094-5.096l.915-.909a8.47 8.47 0 0 1 2.461 6 8.52 8.52 0 0 1-2.5 6.037z"></path><path fill="#0067F5" d="m14.75 11.598-.91-.909a4.97 4.97 0 0 0 1.463-3.531c0-1.334-.521-2.59-1.462-3.531l.908-.909a6.25 6.25 0 0 1 1.843 4.44c0 1.675-.65 3.254-1.843 4.44M12.514.746v12.888c-1.256-.819-2.165-2.024-5.155-2.578a17.6 17.6 0 0 0-5.032-.2A1.283 1.283 0 0 1 .916 9.575V4.812c0-.76.657-1.36 1.41-1.282 1.347.135 3.074.161 5.033-.2 2.99-.554 3.899-1.759 5.155-2.577z"></path></svg>